<?xml version="1.0" encoding="UTF-8" standalone="no"?>
<!-- Generator: Adobe Illustrator 17.1.0, SVG Export Plug-In . SVG Version: 6.00 Build 0)  -->

<svg
   xmlns:dc="http://purl.org/dc/elements/1.1/"
   xmlns:cc="http://creativecommons.org/ns#"
   xmlns:rdf="http://www.w3.org/1999/02/22-rdf-syntax-ns#"
   xmlns:svg="http://www.w3.org/2000/svg"
   xmlns="http://www.w3.org/2000/svg"
   xmlns:sodipodi="http://sodipodi.sourceforge.net/DTD/sodipodi-0.dtd"
   xmlns:inkscape="http://www.inkscape.org/namespaces/inkscape"
   version="1.1"
   id="Capa_1"
   x="0px"
   y="0px"
   viewBox="0 0 193.826 193.826"
   style="enable-background:new 0 0 193.826 193.826;"
   xml:space="preserve"
   inkscape:version="0.91 r13725"
   sodipodi:docname="attach.svg"><metadata
     id="metadata3558"><rdf:RDF><cc:Work
         rdf:about=""><dc:format>image/svg+xml</dc:format><dc:type
           rdf:resource="http://purl.org/dc/dcmitype/StillImage" /></cc:Work></rdf:RDF></metadata><defs
     id="defs3556" /><sodipodi:namedview
     pagecolor="#ffffff"
     bordercolor="#666666"
     borderopacity="1"
     objecttolerance="10"
     gridtolerance="10"
     guidetolerance="10"
     inkscape:pageopacity="0"
     inkscape:pageshadow="2"
     inkscape:window-width="1535"
     inkscape:window-height="876"
     id="namedview3554"
     showgrid="false"
     inkscape:zoom="2.4351738"
     inkscape:cx="-33.696731"
     inkscape:cy="127.78784"
     inkscape:window-x="65"
     inkscape:window-y="24"
     inkscape:window-maximized="1"
     inkscape:current-layer="Capa_1" /><path
     d="M191.495,55.511L137.449,1.465c-1.951-1.953-5.119-1.953-7.07,0l-0.229,0.229c-3.314,3.313-5.14,7.72-5.14,12.406  c0,3.019,0.767,5.916,2.192,8.485l-56.55,48.533c-4.328-3.868-9.852-5.985-15.703-5.985c-6.305,0-12.232,2.455-16.689,6.913  l-0.339,0.339c-1.953,1.952-1.953,5.118,0,7.07l32.378,32.378l-31.534,31.533c-0.631,0.649-15.557,16.03-25.37,28.27  c-9.345,11.653-11.193,13.788-11.289,13.898c-1.735,1.976-1.639,4.956,0.218,6.822c0.973,0.977,2.256,1.471,3.543,1.471  c1.173,0,2.349-0.41,3.295-1.237c0.083-0.072,2.169-1.885,13.898-11.289c12.238-9.813,27.619-24.74,28.318-25.421l31.483-31.483  l30.644,30.644c0.976,0.977,2.256,1.465,3.535,1.465s2.56-0.488,3.535-1.465l0.339-0.339c4.458-4.457,6.913-10.385,6.913-16.689  c0-5.851-2.118-11.375-5.985-15.703l48.533-56.55c2.569,1.425,5.466,2.192,8.485,2.192c4.687,0,9.093-1.825,12.406-5.14l0.229-0.229  C193.448,60.629,193.448,57.463,191.495,55.511z"
     id="path3522" /><g
     id="g3524" /><g
     id="g3526" /><g
     id="g3528" /><g
     id="g3530" /><g
     id="g3532" /><g
     id="g3534" /><g
     id="g3536" /><g
     id="g3538" /><g
     id="g3540" /><g
     id="g3542" /><g
     id="g3544" /><g
     id="g3546" /><g
     id="g3548" /><g
     id="g3550" /><g
     id="g3552" /><path
     style="fill:#000000;fill-opacity:1"
     d="M 2.5826405,192.07829 C 1.1745809,190.67023 0.77091167,188.87543 1.4589942,187.08231 1.8984255,185.93718 17.685523,166.68313 24.372011,159.13745 27.75103,155.32424 39.523467,143.14549 50.532985,132.07357 L 70.550287,111.94281 53.785627,95.115226 C 35.769806,77.031785 35.855767,77.139161 37.069328,74.234699 c 0.742797,-1.777762 4.323001,-4.853206 7.430843,-6.383191 7.966442,-3.921868 17.38926,-3.076729 24.420356,2.190271 0.777911,0.582734 1.570265,1.059518 1.760786,1.059518 0.254774,0 52.631037,-44.672356 56.080787,-47.831987 0.4342,-0.397683 0.32988,-1.092219 -0.56162,-3.738985 -0.92733,-2.753142 -1.06247,-3.72189 -0.88312,-6.330441 0.25837,-3.7577926 1.35119,-6.7449864 3.51694,-9.6135166 2.08742,-2.76476188 4.10602,-3.801361 6.1799,-3.17352064 1.16229,0.35186746 7.46577,6.43553974 29.30164,28.27985824 19.44022,19.447741 27.92438,28.202505 28.16467,29.063006 0.52662,1.885816 -0.15765,3.625585 -2.14732,5.459602 -4.7599,4.387519 -11.48022,5.661108 -17.66382,3.347527 -1.74732,-0.653756 -2.49328,-0.766775 -2.83113,-0.42893 -0.25228,0.252286 -11.19698,12.976446 -24.32154,28.275904 l -23.86285,27.817196 1.73054,2.52876 c 3.97371,5.80659 5.15484,12.19989 3.47052,18.78553 -1.03972,4.06522 -2.92252,7.57815 -5.55187,10.35865 -1.88733,1.99583 -2.2521,2.20555 -3.83608,2.20555 -0.96274,0 -2.24943,-0.26511 -2.85932,-0.58913 -0.60989,-0.32403 -8.03513,-7.52838 -16.500539,-16.00968 L 82.715448,124.08615 62.791346,143.92228 C 39.136963,167.47221 33.64427,172.5084 16.647862,186.2307 c -8.6490511,6.98294 -9.0387124,7.24379 -10.8205828,7.24379 -1.55461,0 -2.070373,-0.22193 -3.2446387,-1.3962 z"
     id="path4362"
     inkscape:connector-curvature="0" /><path
     style="fill:#666666;fill-opacity:1;stroke:#666666"
     d="m 2.5826405,192.07829 c -1.16565,-1.16565 -1.3962042,-1.69521 -1.3962042,-3.20692 0,-1.73507 0.3110074,-2.19567 7.4448958,-11.0259 C 22.461163,160.72708 27.455558,155.27613 50.947809,131.66064 L 70.567288,111.93824 54.148784,95.523591 C 45.118611,86.495533 37.432678,78.48178 37.068937,77.715256 c -1.00875,-2.125783 -0.261872,-4.034743 2.564007,-6.553409 7.753555,-6.910632 19.214351,-7.670849 28.182479,-1.869395 1.552094,1.004044 3.027956,1.698245 3.279692,1.542667 0.394485,-0.243806 54.268255,-46.267103 55.635155,-47.528006 0.39203,-0.361632 0.27127,-1.17862 -0.5535,-3.744952 -0.8759,-2.725386 -1.01999,-3.805069 -0.84908,-6.362277 0.35898,-5.371321 3.16842,-10.6859724 6.5778,-12.44331047 3.05457,-1.57445446 2.01838,-2.46759763 32.41035,27.93613147 19.44022,19.447741 27.92438,28.202505 28.16467,29.063006 0.52688,1.886732 -0.15789,3.625803 -2.1511,5.463085 -4.79428,4.419212 -11.45389,5.666059 -17.72708,3.318958 l -2.3778,-0.889645 -0.84945,0.993695 c -0.4672,0.546532 -11.33639,13.209772 -24.15375,28.140534 -12.81736,14.930762 -23.30429,27.272952 -23.30429,27.427092 0,0.15414 0.55996,1.09412 1.24435,2.08885 6.5606,9.53551 5.72603,21.74993 -2.03635,29.80327 -1.84143,1.91045 -2.03462,2.00395 -4.14062,2.00395 l -2.20906,0 -15.920752,-15.88646 -15.920749,-15.88646 -0.936812,0.79513 c -0.515244,0.43733 -9.160652,8.94438 -19.212013,18.90457 -24.484519,24.26242 -28.609238,28.03632 -46.121615,42.19887 -8.661541,7.00473 -9.0179956,7.24334 -10.8205828,7.24334 -1.5723023,0 -2.0824783,-0.21848 -3.2601957,-1.3962 z"
     id="path4364"
     inkscape:connector-curvature="0" /><path
     style="fill:#808080;fill-opacity:1;stroke:#808080;stroke-width:0.41064832;stroke-opacity:1"
     d="M 3.3370365,193.06512 C 1.5784269,191.99289 0.583929,189.90349 0.93682702,188.02238 1.1279041,187.00385 3.0658929,184.26998 7.5917451,178.63445 21.484562,161.3353 26.750054,155.58058 50.957221,131.23981 c 10.344116,-10.4012 18.807484,-19.08752 18.807484,-19.30291 0,-0.2154 -5.836902,-6.21147 -12.97089,-13.32461 -7.133988,-7.113139 -14.618053,-14.73094 -16.631256,-16.928451 -3.255054,-3.553056 -3.660198,-4.166918 -3.658833,-5.543752 0.002,-2.039908 1.117337,-3.784416 3.749849,-5.865298 8.090469,-6.395149 18.415675,-6.919983 27.511605,-1.398426 1.271757,0.771998 2.579947,1.403637 2.90709,1.403637 0.327147,0 8.445451,-6.698701 18.04068,-14.886001 9.595229,-8.187301 21.99612,-18.766628 27.55753,-23.509616 5.56141,-4.742988 10.12337,-8.911818 10.13767,-9.264066 0.0143,-0.352248 -0.36258,-2.177151 -0.83753,-4.05534 -0.7681,-3.037432 -0.8123,-3.759494 -0.39986,-6.532557 0.99534,-6.6922293 4.97762,-12.16779802 8.77097,-12.05994444 0.80957,0.02301807 2.16933,0.89418305 4.52458,2.89879334 4.01353,3.4160205 53.33322,52.8457211 54.01783,54.1383271 1.12984,2.133248 0.2678,4.526995 -2.47607,6.875645 -4.73643,4.054211 -11.3303,5.127227 -17.72079,2.883695 -1.6825,-0.59068 -2.06781,-0.611126 -2.51139,-0.133263 -1.6714,1.800586 -47.4482,55.421187 -47.4482,55.578397 0,0.1048 0.74114,1.33725 1.64699,2.73876 3.31936,5.13571 4.66888,12.65369 3.30695,18.42257 -1.12368,4.75966 -4.69742,10.60255 -7.54807,12.34072 -0.7803,0.47578 -2.05095,0.79757 -3.153,0.79849 l -1.84597,0.002 -15.913068,-15.90915 -15.913074,-15.90915 -6.263885,6.16851 c -3.445138,3.39268 -12.454409,12.26564 -20.020604,19.71767 -14.014705,13.80325 -19.433908,18.89222 -27.102789,25.45123 -5.718339,4.89075 -18.756938,15.45254 -20.7252045,16.78824 -1.8724692,1.2707 -3.6426074,1.34904 -5.458929,0.24162 z"
     id="path4366"
     inkscape:connector-curvature="0" /></svg>